# xmcd
#
# Track frame offsets:
#	150
#	16694
#	35699
#	54137
#	72622
#	97828
#	128861
#	153694
#	171412
#	182439
#	194060
#	209752
#	219437
#	230707
#	244424
#	255811
#	267284
#	282637
#	295775
#	312832
#
# Disc length: 4331 seconds
#
# Revision: 0
# Processed by: cddbd v1.5.2PL0 Copyright (c) Steve Scherf et al.
# Submitted via: FairStars CD Ripper 1.80
#
DISCID=3110e914
DTITLE=Nina Simone - My Baby Just Cares For Me cd1
DYEAR=2014
DGENRE=Jazz
TTITLE0=My Baby Just Cares For Me
TTITLE1=I Loves You Porgy
TTITLE2=Mood Indigo
TTITLE3=I Got It Bad (And That Ain't Good)
TTITLE4=Summertime
TTITLE5=Central Park Blues
TTITLE6=Good Bait
TTITLE7=Plain Gold Ring
TTITLE8=Hey, Buddy Bolden
TTITLE9=Work Song
TTITLE10=Black Is The Colour Of My True Loves Hair
TTITLE11=Stompin' At The Savoy
TTITLE12=Theme From "Middle Of The Night"
TTITLE13=Tomorrow (We Will Meet Once More)
TTITLE14=That's Him Over There
TTITLE15=Can't Get Out Of This Mood
TTITLE16=Solitaire
TTITLE17=Something To Live For
TTITLE18=Forbidden Fruit
TTITLE19=Nobody Knows You When You're Down And Out
EXTD=
EXTT0=
EXTT1=
EXTT2=
EXTT3=
EXTT4=
EXTT5=
EXTT6=
EXTT7=
EXTT8=
EXTT9=
EXTT10=
EXTT11=
EXTT12=
EXTT13=
EXTT14=
EXTT15=
EXTT16=
EXTT17=
EXTT18=
EXTT19=
PLAYORDER=
